<?xml version="1.0" encoding="utf-8"?>
<!-- Generator: Adobe Illustrator 27.7.0, SVG Export Plug-In . SVG Version: 6.00 Build 0)  -->
<svg version="1.1" id="Layer_1" xmlns="http://www.w3.org/2000/svg" xmlns:xlink="http://www.w3.org/1999/xlink" x="0px" y="0px"
	 viewBox="0 0 69 69" style="enable-background:new 0 0 69 69;" xml:space="preserve">
<style type="text/css">
	.st0{clip-path:url(#SVGID_00000011726302941526482030000014172293068921164933_);}
	.st1{fill:#454F5B;}
</style>
<g>
	<defs>
		<rect id="SVGID_1_" x="14" y="14" width="41" height="41"/>
	</defs>
	<clipPath id="SVGID_00000073717237643150769810000000485205167639481771_">
		<use xlink:href="#SVGID_1_"  style="overflow:visible;"/>
	</clipPath>
	<g style="clip-path:url(#SVGID_00000073717237643150769810000000485205167639481771_);">
		<path class="st1" d="M40.1,30.8c0-0.3-0.1-0.6-0.4-0.8l-6.5-4.7c-0.3-0.2-0.7-0.2-1-0.1c-0.3,0.2-0.5,0.5-0.5,0.8v5.8l-1.3-0.9
			c-0.4-0.3-1-0.2-1.3,0.2c-0.3,0.4-0.2,1,0.2,1.3l2.4,1.7v0.7l-2.4,1.7c-0.4,0.3-0.5,0.9-0.2,1.3c0.3,0.4,0.9,0.5,1.3,0.2l1.3-0.9
			v5.8c0,0.3,0.2,0.7,0.5,0.8c0.1,0.1,0.3,0.1,0.4,0.1c0.2,0,0.4-0.1,0.5-0.2l6.5-4.7c0.2-0.2,0.4-0.5,0.4-0.8
			c0-0.3-0.1-0.6-0.4-0.8l-4.2-3l4.2-3C39.9,31.4,40.1,31.1,40.1,30.8z M37.5,38.2l-4,2.8v-5.3l0.3-0.2L37.5,38.2z M33.8,33.4
			l-0.3-0.2v-5.3l4,2.8L33.8,33.4z"/>
		<path class="st1" d="M34.5,14C23.2,14,14,24,14,36.4v10.2c0,0.5,0.4,0.9,0.9,0.9h2.8v3.7c0,2.1,1.7,3.7,3.7,3.7h2.8
			c0.5,0,0.9-0.4,0.9-0.9V37.3c0-0.5-0.4-0.9-0.9-0.9h-2.8c-2.1,0-3.7,1.7-3.7,3.7v-3.7c0-10.3,7.5-18.6,16.8-18.6
			c9.2,0,16.8,8.4,16.8,18.6v3.7c0-2.1-1.7-3.7-3.7-3.7h-2.8c-0.5,0-0.9,0.4-0.9,0.9v16.8c0,0.5,0.4,0.9,0.9,0.9h2.8
			c2.1,0,3.7-1.7,3.7-3.7v-3.7h2.8c0.5,0,0.9-0.4,0.9-0.9V36.4C55,24,45.8,14,34.5,14z"/>
	</g>
</g>
</svg>
