<?xml version="1.0" encoding="utf-8"?>
<!-- Generator: Adobe Illustrator 27.7.0, SVG Export Plug-In . SVG Version: 6.00 Build 0)  -->
<svg version="1.1" id="Layer_1" xmlns="http://www.w3.org/2000/svg" xmlns:xlink="http://www.w3.org/1999/xlink" x="0px" y="0px"
	 viewBox="0 0 69 69" style="enable-background:new 0 0 69 69;" xml:space="preserve">
<style type="text/css">
	.st0{fill:#454F5B;}
</style>
<path class="st0" d="M64.1,16.3H4.9c-2.7,0-4.9,2.2-4.9,4.9v26.5c0,2.7,2.2,4.9,4.9,4.9h59.1c2.7,0,4.9-2.2,4.9-4.9V21.3
	C69,18.5,66.8,16.3,64.1,16.3z M52.5,23h1.7c0.6,0,1.1,0.5,1.1,1.1c0,0.6-0.5,1.1-1.1,1.1h-1.7c-0.6,0-1.1-0.5-1.1-1.1
	C51.4,23.4,51.9,23,52.5,23z M44.9,23h1.7c0.6,0,1.1,0.5,1.1,1.1c0,0.6-0.5,1.1-1.1,1.1h-1.7c-0.6,0-1.1-0.5-1.1-1.1
	C43.8,23.4,44.3,23,44.9,23z M41.2,29.9h1.7c0.6,0,1.1,0.5,1.1,1.1c0,0.6-0.5,1.1-1.1,1.1h-1.7c-0.6,0-1.1-0.5-1.1-1.1
	C40.1,30.4,40.6,29.9,41.2,29.9z M40.2,38c0,0.6-0.5,1.1-1.1,1.1h-1.7c-0.6,0-1.1-0.5-1.1-1.1c0-0.6,0.5-1.1,1.1-1.1h1.7
	C39.7,36.9,40.2,37.4,40.2,38z M37.4,23h1.7c0.6,0,1.1,0.5,1.1,1.1c0,0.6-0.5,1.1-1.1,1.1h-1.7c-0.6,0-1.1-0.5-1.1-1.1
	C36.3,23.4,36.8,23,37.4,23z M33.6,29.9h1.7c0.6,0,1.1,0.5,1.1,1.1c0,0.6-0.5,1.1-1.1,1.1h-1.7c-0.6,0-1.1-0.5-1.1-1.1
	C32.5,30.4,33,29.9,33.6,29.9z M32.7,38c0,0.6-0.5,1.1-1.1,1.1h-1.7c-0.6,0-1.1-0.5-1.1-1.1c0-0.6,0.5-1.1,1.1-1.1h1.7
	C32.2,36.9,32.7,37.4,32.7,38z M29.9,23h1.7c0.6,0,1.1,0.5,1.1,1.1c0,0.6-0.5,1.1-1.1,1.1h-1.7c-0.6,0-1.1-0.5-1.1-1.1
	C28.8,23.4,29.3,23,29.9,23z M26.1,29.9h1.7c0.6,0,1.1,0.5,1.1,1.1c0,0.6-0.5,1.1-1.1,1.1h-1.7c-0.6,0-1.1-0.5-1.1-1.1
	C25,30.4,25.5,29.9,26.1,29.9z M25.2,38c0,0.6-0.5,1.1-1.1,1.1h-1.7c-0.6,0-1.1-0.5-1.1-1.1c0-0.6,0.5-1.1,1.1-1.1h1.7
	C24.7,36.9,25.2,37.4,25.2,38z M22.3,23h1.7c0.6,0,1.1,0.5,1.1,1.1c0,0.6-0.5,1.1-1.1,1.1h-1.7c-0.6,0-1.1-0.5-1.1-1.1
	C21.3,23.4,21.7,23,22.3,23z M14.8,23h1.7c0.6,0,1.1,0.5,1.1,1.1c0,0.6-0.5,1.1-1.1,1.1h-1.7c-0.6,0-1.1-0.5-1.1-1.1
	C13.7,23.4,14.2,23,14.8,23z M7.3,23H9c0.6,0,1.1,0.5,1.1,1.1c0,0.6-0.5,1.1-1.1,1.1H7.3c-0.6,0-1.1-0.5-1.1-1.1
	C6.2,23.4,6.7,23,7.3,23z M9,46H7.3c-0.6,0-1.1-0.5-1.1-1.1c0-0.6,0.5-1.1,1.1-1.1H9c0.6,0,1.1,0.5,1.1,1.1C10.1,45.6,9.6,46,9,46z
	 M9,39.1H7.3c-0.6,0-1.1-0.5-1.1-1.1c0-0.6,0.5-1.1,1.1-1.1H9c0.6,0,1.1,0.5,1.1,1.1C10.1,38.6,9.6,39.1,9,39.1z M12.8,32.1H11
	c-0.6,0-1.1-0.5-1.1-1.1c0-0.6,0.5-1.1,1.1-1.1h1.7c0.6,0,1.1,0.5,1.1,1.1C13.9,31.6,13.4,32.1,12.8,32.1z M16.5,46h-1.7
	c-0.6,0-1.1-0.5-1.1-1.1c0-0.6,0.5-1.1,1.1-1.1h1.7c0.6,0,1.1,0.5,1.1,1.1C17.6,45.6,17.1,46,16.5,46z M16.5,39.1h-1.7
	c-0.6,0-1.1-0.5-1.1-1.1c0-0.6,0.5-1.1,1.1-1.1h1.7c0.6,0,1.1,0.5,1.1,1.1C17.6,38.6,17.1,39.1,16.5,39.1z M20.3,32.1h-1.7
	c-0.6,0-1.1-0.5-1.1-1.1c0-0.6,0.5-1.1,1.1-1.1h1.7c0.6,0,1.1,0.5,1.1,1.1C21.4,31.6,20.9,32.1,20.3,32.1z M46.7,46H22.3
	c-0.6,0-1.1-0.5-1.1-1.1c0-0.6,0.5-1.1,1.1-1.1h24.3c0.6,0,1.1,0.5,1.1,1.1C47.7,45.6,47.3,46,46.7,46z M46.7,39.1h-1.7
	c-0.6,0-1.1-0.5-1.1-1.1c0-0.6,0.5-1.1,1.1-1.1h1.7c0.6,0,1.1,0.5,1.1,1.1C47.7,38.6,47.3,39.1,46.7,39.1z M50.4,32.1h-1.7
	c-0.6,0-1.1-0.5-1.1-1.1c0-0.6,0.5-1.1,1.1-1.1h1.7c0.6,0,1.1,0.5,1.1,1.1C51.5,31.6,51,32.1,50.4,32.1z M54.2,46h-1.7
	c-0.6,0-1.1-0.5-1.1-1.1c0-0.6,0.5-1.1,1.1-1.1h1.7c0.6,0,1.1,0.5,1.1,1.1C55.3,45.6,54.8,46,54.2,46z M54.2,39.1h-1.7
	c-0.6,0-1.1-0.5-1.1-1.1c0-0.6,0.5-1.1,1.1-1.1h1.7c0.6,0,1.1,0.5,1.1,1.1C55.3,38.6,54.8,39.1,54.2,39.1z M58,32.1h-1.7
	c-0.6,0-1.1-0.5-1.1-1.1c0-0.6,0.5-1.1,1.1-1.1H58c0.6,0,1.1,0.5,1.1,1.1C59,31.6,58.6,32.1,58,32.1z M61.7,46H60
	c-0.6,0-1.1-0.5-1.1-1.1c0-0.6,0.5-1.1,1.1-1.1h1.7c0.6,0,1.1,0.5,1.1,1.1C62.8,45.6,62.3,46,61.7,46z M61.7,39.1H60
	c-0.6,0-1.1-0.5-1.1-1.1c0-0.6,0.5-1.1,1.1-1.1h1.7c0.6,0,1.1,0.5,1.1,1.1C62.8,38.6,62.3,39.1,61.7,39.1z M61.7,25.1H60
	c-0.6,0-1.1-0.5-1.1-1.1c0-0.6,0.5-1.1,1.1-1.1h1.7c0.6,0,1.1,0.5,1.1,1.1C62.8,24.6,62.3,25.1,61.7,25.1z"/>
</svg>
