<svg width="69" height="69" viewBox="0 0 69 69" fill="none" xmlns="http://www.w3.org/2000/svg">
<path d="M35.8744 23.7822L36.2476 22.6406H32.7523L33.1255 23.7822H35.8744Z" fill="#454F5B"/>
<path d="M41.9756 31.7651C43.2409 31.7651 44.2666 30.7394 44.2666 29.4741C44.2666 28.2088 43.2409 27.1831 41.9756 27.1831C40.7103 27.1831 39.6846 28.2088 39.6846 29.4741C39.6846 30.7394 40.7103 31.7651 41.9756 31.7651Z" fill="#454F5B"/>
<path d="M10.7812 14.0156C10.7812 13.7297 10.8948 13.4555 11.097 13.2533C11.2992 13.0511 11.5734 12.9375 11.8594 12.9375H57.1406C57.4266 12.9375 57.7008 13.0511 57.903 13.2533C58.1052 13.4555 58.2188 13.7297 58.2188 14.0156V45.2812H60.375V14.2852C60.3739 13.3562 60.0044 12.4656 59.3475 11.8087C58.6907 11.1518 57.8001 10.7823 56.8711 10.7812H12.1289C11.1999 10.7823 10.3093 11.1518 9.65245 11.8087C8.99557 12.4656 8.62607 13.3562 8.625 14.2852V45.2812H10.7812V14.0156Z" fill="#454F5B"/>
<path d="M39.2591 47.4375L37.4186 49.278C37.3185 49.3781 37.1996 49.4575 37.0688 49.5117C36.938 49.5659 36.7978 49.5938 36.6562 49.5938H32.3438C32.2022 49.5938 32.062 49.5659 31.9312 49.5117C31.8004 49.4575 31.6815 49.3781 31.5814 49.278L29.7409 47.4375H4.3125V48.7852C4.31339 49.5712 4.62604 50.3248 5.18187 50.8806C5.73769 51.4365 6.49129 51.7491 7.27734 51.75H61.7227C62.5087 51.7491 63.2623 51.4365 63.8181 50.8806C64.374 50.3248 64.6866 49.5712 64.6875 48.7852V47.4375H39.2591Z" fill="#454F5B"/>
<path d="M25.9807 36.9734C26.6663 36.9717 27.3422 36.8113 27.9555 36.5047C28.5687 36.1981 29.1026 35.7536 29.5153 35.206L30.3397 34.1068C30.4401 33.9729 30.5703 33.8642 30.72 33.7893C30.8697 33.7145 31.0348 33.6755 31.2022 33.6755H37.7979C37.9652 33.6755 38.1303 33.7145 38.28 33.7893C38.4297 33.8642 38.5599 33.9729 38.6604 34.1068L39.4847 35.206C40.0411 35.9479 40.8168 36.4959 41.7019 36.7724C42.587 37.049 43.5367 37.04 44.4164 36.7467C45.2962 36.4535 46.0613 35.8909 46.6036 35.1386C47.1458 34.3863 47.4375 33.4825 47.4375 32.5552V28.1581C47.4359 26.6953 46.854 25.2928 45.8197 24.2585C44.7853 23.2241 43.3829 22.6423 41.9201 22.6406H38.516L37.6805 25.1954C37.6099 25.4114 37.4728 25.5995 37.2888 25.733C37.1049 25.8664 36.8835 25.9384 36.6562 25.9385H32.3438C32.1165 25.9384 31.8951 25.8664 31.7112 25.733C31.5272 25.5995 31.3901 25.4114 31.3195 25.1954L30.484 22.6406H27.0799C25.6171 22.6423 24.2147 23.2241 23.1803 24.2585C22.146 25.2928 21.5641 26.6953 21.5625 28.1581V32.5552C21.5638 33.7266 22.0297 34.8496 22.858 35.6778C23.6863 36.5061 24.8093 36.972 25.9807 36.9734ZM41.9756 25.0268C42.8552 25.0268 43.715 25.2876 44.4464 25.7763C45.1777 26.265 45.7477 26.9595 46.0843 27.7722C46.4209 28.5848 46.509 29.479 46.3374 30.3417C46.1658 31.2044 45.7422 31.9968 45.1203 32.6187C44.4983 33.2407 43.7059 33.6643 42.8432 33.8359C41.9805 34.0075 41.0863 33.9194 40.2737 33.5828C39.4611 33.2462 38.7665 32.6762 38.2778 31.9448C37.7891 31.2135 37.5283 30.3536 37.5283 29.4741C37.5297 28.295 37.9987 27.1646 38.8324 26.3309C39.6661 25.4971 40.7965 25.0281 41.9756 25.0268ZM33.6914 28.7288H35.3086C35.5945 28.7288 35.8688 28.8424 36.0709 29.0446C36.2731 29.2468 36.3867 29.521 36.3867 29.8069C36.3867 30.0929 36.2731 30.3671 36.0709 30.5693C35.8688 30.7715 35.5945 30.885 35.3086 30.885H33.6914C33.4055 30.885 33.1312 30.7715 32.9291 30.5693C32.7269 30.3671 32.6133 30.0929 32.6133 29.8069C32.6133 29.521 32.7269 29.2468 32.9291 29.0446C33.1312 28.8424 33.4055 28.7288 33.6914 28.7288ZM24.123 28.6614H25.2686V27.5159C25.2686 27.23 25.3821 26.9557 25.5843 26.7536C25.7865 26.5514 26.0607 26.4378 26.3467 26.4378C26.6326 26.4378 26.9068 26.5514 27.109 26.7536C27.3112 26.9557 27.4248 27.23 27.4248 27.5159V28.6614H28.5703C28.8562 28.6614 29.1305 28.775 29.3327 28.9772C29.5349 29.1794 29.6484 29.4536 29.6484 29.7395C29.6484 30.0255 29.5349 30.2997 29.3327 30.5019C29.1305 30.7041 28.8562 30.8177 28.5703 30.8177H27.4248V31.9632C27.4248 32.2491 27.3112 32.5233 27.109 32.7255C26.9068 32.9277 26.6326 33.0413 26.3467 33.0413C26.0607 33.0413 25.7865 32.9277 25.5843 32.7255C25.3821 32.5233 25.2686 32.2491 25.2686 31.9632V30.8177H24.123C23.8371 30.8177 23.5629 30.7041 23.3607 30.5019C23.1585 30.2997 23.0449 30.0255 23.0449 29.7395C23.0449 29.4536 23.1585 29.1794 23.3607 28.9772C23.5629 28.775 23.8371 28.6614 24.123 28.6614Z" fill="#454F5B"/>
<path d="M30.1875 45.2812C30.3291 45.2812 30.4693 45.3091 30.6001 45.3633C30.7309 45.4175 30.8498 45.4969 30.9499 45.597L32.7904 47.4375H36.2096L38.0501 45.597C38.1502 45.4969 38.2691 45.4175 38.3999 45.3633C38.5307 45.3091 38.6709 45.2812 38.8125 45.2812H56.0625V15.0938H12.9375V45.2812H30.1875ZM30.1875 43.125C29.9743 43.125 29.7658 43.0618 29.5885 42.9433C29.4112 42.8248 29.273 42.6565 29.1914 42.4595C29.1098 42.2625 29.0885 42.0457 29.1301 41.8365C29.1717 41.6274 29.2744 41.4353 29.4251 41.2845C29.5759 41.1337 29.768 41.0311 29.9772 40.9895C30.1863 40.9479 30.4031 40.9692 30.6001 41.0508C30.7971 41.1324 30.9655 41.2706 31.0839 41.4479C31.2024 41.6252 31.2656 41.8336 31.2656 42.0469C31.2656 42.3328 31.152 42.607 30.9499 42.8092C30.7477 43.0114 30.4734 43.125 30.1875 43.125ZM34.5 43.125C34.2868 43.125 34.0783 43.0618 33.901 42.9433C33.7237 42.8248 33.5855 42.6565 33.5039 42.4595C33.4223 42.2625 33.401 42.0457 33.4426 41.8365C33.4842 41.6274 33.5869 41.4353 33.7376 41.2845C33.8884 41.1337 34.0805 41.0311 34.2897 40.9895C34.4988 40.9479 34.7156 40.9692 34.9126 41.0508C35.1096 41.1324 35.278 41.2706 35.3964 41.4479C35.5149 41.6252 35.5781 41.8336 35.5781 42.0469C35.5781 42.3328 35.4645 42.607 35.2624 42.8092C35.0602 43.0114 34.7859 43.125 34.5 43.125ZM38.8125 43.125C38.5993 43.125 38.3908 43.0618 38.2135 42.9433C38.0362 42.8248 37.898 42.6565 37.8164 42.4595C37.7348 42.2625 37.7135 42.0457 37.7551 41.8365C37.7967 41.6274 37.8994 41.4353 38.0501 41.2845C38.2009 41.1337 38.393 41.0311 38.6022 40.9895C38.8113 40.9479 39.0281 40.9692 39.2251 41.0508C39.4221 41.1324 39.5905 41.2706 39.7089 41.4479C39.8274 41.6252 39.8906 41.8336 39.8906 42.0469C39.8906 42.3328 39.777 42.607 39.5749 42.8092C39.3727 43.0114 39.0984 43.125 38.8125 43.125ZM19.4062 28.1581C19.4086 26.1236 20.2178 24.1731 21.6564 22.7345C23.095 21.2959 25.0455 20.4867 27.0799 20.4844H41.9201C43.9545 20.4867 45.905 21.2959 47.3436 22.7345C48.7822 24.1731 49.5914 26.1236 49.5938 28.1581V32.5552C49.5938 33.9351 49.1596 35.28 48.3528 36.3994C47.546 37.5188 46.4074 38.356 45.0983 38.7923C43.7892 39.2287 42.3761 39.2421 41.059 38.8306C39.7419 38.4192 38.5876 37.6037 37.7597 36.4998L37.2588 35.8318H31.7412L31.2403 36.4998C30.4124 37.6037 29.2581 38.4192 27.941 38.8306C26.6239 39.2421 25.2108 39.2287 23.9017 38.7923C22.5926 38.356 21.454 37.5188 20.6472 36.3994C19.8404 35.28 19.4062 33.9351 19.4062 32.5552V28.1581Z" fill="#454F5B"/>
</svg>
