<?xml version="1.0" encoding="utf-8"?>
<!-- Generator: Adobe Illustrator 27.7.0, SVG Export Plug-In . SVG Version: 6.00 Build 0)  -->
<svg version="1.1" id="Layer_1" xmlns="http://www.w3.org/2000/svg" xmlns:xlink="http://www.w3.org/1999/xlink" x="0px" y="0px"
	 viewBox="0 0 69 69" style="enable-background:new 0 0 69 69;" xml:space="preserve">
<style type="text/css">
	.st0{clip-path:url(#SVGID_00000182526336274503472390000003738121301099081124_);}
	.st1{fill:#454F5B;}
</style>
<g>
	<defs>
		<rect id="SVGID_1_" x="11" y="11" width="47" height="47"/>
	</defs>
	<clipPath id="SVGID_00000003071854511005918290000009089796696701195412_">
		<use xlink:href="#SVGID_1_"  style="overflow:visible;"/>
	</clipPath>
	<g style="clip-path:url(#SVGID_00000003071854511005918290000009089796696701195412_);">
		<path class="st1" d="M53.6,16.9H21.3v2.9c0,1.6,1.3,2.9,2.9,2.9H36c3.2,0,5.9,2.6,5.9,5.9v0.9l2.5-0.8c0.6-0.2,1.3,0,1.7,0.6
			c3.2,4.8,3.2,4.6,3.2,5.2v8.8c0,4.9-4,8.8-8.8,8.8s-8.8-4-8.8-8.8v-8.8c0-0.6-0.1-0.4,3.2-5.2c0.4-0.6,1.1-0.8,1.7-0.6l2.5,0.8
			v-0.9c0-1.6-1.3-2.9-2.9-2.9H24.2c-3.2,0-5.9-2.6-5.9-5.9c0-1.8,0-6.1,0-7.3c0-0.8-0.7-1.5-1.5-1.5s-1.5,0.7-1.5,1.5v4.4
			c-2.4,0-4.4,2-4.4,4.4v32.3c0,2.4,2,4.4,4.4,4.4h38.2c2.4,0,4.4-2,4.4-4.4V21.3C58,18.9,56,16.9,53.6,16.9z"/>
		<path class="st1" d="M34.5,34.9v8.4c0,3.2,2.6,5.9,5.9,5.9c3.2,0,5.9-2.6,5.9-5.9v-8.4l-2.1-3.1l-3.3,1.1
			c-0.6,0.2-0.8,0.1-4.3-1.1L34.5,34.9z M38.9,36c0-0.8,0.7-1.5,1.5-1.5s1.5,0.7,1.5,1.5v2.9c0,0.8-0.7,1.5-1.5,1.5
			s-1.5-0.7-1.5-1.5V36z"/>
	</g>
</g>
</svg>
