<?xml version="1.0" encoding="utf-8"?>
<!-- Generator: Adobe Illustrator 27.7.0, SVG Export Plug-In . SVG Version: 6.00 Build 0)  -->
<svg version="1.1" id="Layer_2_00000051359098067207154800000007460990532817521552_"
	 xmlns="http://www.w3.org/2000/svg" xmlns:xlink="http://www.w3.org/1999/xlink" x="0px" y="0px" viewBox="0 0 222.8 252.6"
	 style="enable-background:new 0 0 222.8 252.6;" xml:space="preserve">
<style type="text/css">
	.st0{fill:#44ADE2;}
	.st1{fill:#FFFFFF;}
</style>
<g id="Layer_2-2">
	<g>
		<path d="M12,0h198.9c6.6,0,12,5.4,12,12v228.7c0,6.6-5.4,12-12,12H12c-6.6,0-12-5.4-12-12V12C0,5.4,5.4,0,12,0z"/>
		<g>
			<g>
				<g>
					<polygon class="st0" points="33.1,141.3 33.1,170.8 33.1,199.8 62.6,199.8 62.6,170.8 62.6,141.3 					"/>
					<polygon class="st0" points="92.2,52.8 62.6,52.8 33.1,52.8 33.1,82.3 33.1,111.8 62.6,111.8 62.6,82.3 92.2,82.3 121.7,52.8 
											"/>
				</g>
				<g>
					<polygon class="st1" points="150.4,160.8 130.9,141.3 91.9,141.3 111.4,160.8 130.9,180.3 150.4,199.8 189.4,199.8 
						169.9,180.3 					"/>
					<polygon class="st1" points="150.7,92.3 170.2,72.8 189.7,53.3 150.7,53.3 131.2,72.8 111.7,92.3 92.2,111.8 131.2,111.8 					
						"/>
				</g>
				<g>
					<rect x="62.6" y="111.8" class="st0" width="14.8" height="14.8"/>
					<rect x="77.3" y="126.6" class="st0" width="14.8" height="14.8"/>
					<rect x="62.6" y="126.6" class="st1" width="14.8" height="14.8"/>
					<rect x="77.3" y="111.8" class="st1" width="14.8" height="14.8"/>
				</g>
			</g>
		</g>
	</g>
</g>
</svg>
