<?xml version="1.0" encoding="UTF-8"?>
<svg id="Layer_2" data-name="Layer 2" xmlns="http://www.w3.org/2000/svg" viewBox="0 0 222.82 252.61">
  <defs>
    <style>
      .cls-1 {
        fill: #fff;
      }

      .cls-2 {
        fill: #44ade2;
      }
    </style>
  </defs>
  <g id="Layer_2-2" data-name="Layer 2">
    <g>
      <rect width="222.82" height="252.61" rx="11.96" ry="11.96"/>
      <g>
        <g>
          <g>
            <polygon class="cls-2" points="33.14 118.01 33.14 147.51 33.14 176.48 62.64 176.48 62.64 147.51 62.64 118.01 33.14 118.01"/>
            <polygon class="cls-2" points="92.15 29.5 62.64 29.5 33.14 29.5 33.14 59.01 33.14 88.51 62.64 88.51 62.64 59.01 92.15 59.01 121.65 29.5 92.15 29.5"/>
          </g>
          <g>
            <polygon class="cls-1" points="150.42 137.47 130.92 117.96 91.9 117.96 111.41 137.47 130.92 156.97 150.42 176.48 189.44 176.48 169.93 156.97 150.42 137.47"/>
            <polygon class="cls-1" points="150.67 69 170.17 49.5 189.68 29.99 150.67 29.99 131.16 49.5 111.65 69 92.15 88.51 131.16 88.51 150.67 69"/>
          </g>
          <g>
            <rect class="cls-2" x="62.64" y="88.51" width="14.75" height="14.75"/>
            <rect class="cls-2" x="77.35" y="103.26" width="14.75" height="14.75"/>
            <rect class="cls-1" x="62.64" y="103.26" width="14.75" height="14.75"/>
            <rect class="cls-1" x="77.35" y="88.51" width="14.75" height="14.75"/>
          </g>
        </g>
        <g>
          <path class="cls-1" d="m34.01,198.03h20.57v5.43h-13.82v4.19h11.08v5.26h-11.05v9.59h-6.79v-24.47Z"/>
          <path class="cls-1" d="m59.8,198.03h6.71v12.75l11.86-12.75h6.86l-9.52,10.16,10.58,14.32h-8.38l-6.64-9.52-4.8,5.19v4.33h-6.68v-24.47Z"/>
          <path class="cls-1" d="m114.1,222.36c-1.24.35-2.91.64-4.97.64-4.05,0-6.18-1.63-6.18-4.23v-9.24h-4.01v-4.44h4.16l1.1-6.32h4.72v6.32h5.19v4.44h-5.15v6.89c0,1.81.36,2.56,2.63,2.56.67,0,1.63-.07,2.52-.36v3.73Z"/>
          <path class="cls-1" d="m139.1,217.38c-.82,1.71-3.8,5.72-10.23,5.72-8.56,0-10.87-5.68-10.87-9.2,0-5.01,4.12-9.45,10.44-9.45,6.89,0,10.59,4.94,10.76,10.27h-14.78c.11,2.2,1.35,4.48,4.94,4.48,1.63,0,3.02-.53,3.91-1.81h5.83Zm-6.14-5.36c-.11-1.92-1.53-3.62-4.19-3.62-2.38,0-3.98,1.42-4.26,3.62h8.46Z"/>
          <path class="cls-1" d="m157.32,211.24c-.53-1.78-1.85-2.59-3.94-2.59-2.27,0-4.26,1.67-4.26,5.36,0,3.45,1.95,5.01,4.23,5.01,2.06,0,3.55-.92,4.33-2.84h6.29c-.57,2.1-3.02,6.89-10.51,6.89-6.5,0-10.73-3.69-10.73-9.34,0-5.29,4.37-9.34,10.66-9.34,7.28,0,9.98,4.37,10.44,6.86h-6.5Z"/>
          <path class="cls-1" d="m168.15,198.03h5.97v10.48c1.1-2.31,3.3-3.94,6.79-3.94,4.97,0,7.42,3.09,7.42,7.25v10.69h-6.07v-8.74c0-2.42-.43-4.48-3.09-4.48-3.09,0-5.08,2.63-5.08,6.64v6.57h-5.93v-24.47Z"/>
        </g>
      </g>
    </g>
  </g>
</svg>